<svg xmlns="http://www.w3.org/2000/svg" viewBox="0 0 24 24" fill="currentColor">
  <defs>
    <linearGradient id="heatGrad" x1="0%" y1="0%" x2="100%" y2="100%">
      <stop offset="0%" style="stop-color:#4A90D9;stop-opacity:0.3"/>
      <stop offset="50%" style="stop-color:#FFB74D;stop-opacity:0.7"/>
      <stop offset="100%" style="stop-color:#FF5252;stop-opacity:0.9"/>
    </linearGradient>
  </defs>
  <rect x="2" y="2" width="4" height="4" rx="1" fill="url(#heatGrad)" fill-opacity="0.3"/>
  <rect x="7" y="2" width="4" height="4" rx="1" fill="url(#heatGrad)" fill-opacity="0.6"/>
  <rect x="12" y="2" width="4" height="4" rx="1" fill="url(#heatGrad)" fill-opacity="0.9"/>
  <rect x="17" y="2" width="4" height="4" rx="1" fill="url(#heatGrad)" fill-opacity="0.4"/>
  <rect x="2" y="7" width="4" height="4" rx="1" fill="url(#heatGrad)" fill-opacity="0.5"/>
  <rect x="7" y="7" width="4" height="4" rx="1" fill="url(#heatGrad)" fill-opacity="0.9"/>
  <rect x="12" y="7" width="4" height="4" rx="1" fill="url(#heatGrad)" fill-opacity="0.7"/>
  <rect x="17" y="7" width="4" height="4" rx="1" fill="url(#heatGrad)" fill-opacity="0.2"/>
  <rect x="2" y="12" width="4" height="4" rx="1" fill="url(#heatGrad)" fill-opacity="0.8"/>
  <rect x="7" y="12" width="4" height="4" rx="1" fill="url(#heatGrad)" fill-opacity="0.4"/>
  <rect x="12" y="12" width="4" height="4" rx="1" fill="url(#heatGrad)" fill-opacity="0.9"/>
  <rect x="17" y="12" width="4" height="4" rx="1" fill="url(#heatGrad)" fill-opacity="0.6"/>
  <rect x="2" y="17" width="4" height="4" rx="1" fill="url(#heatGrad)" fill-opacity="0.2"/>
  <rect x="7" y="17" width="4" height="4" rx="1" fill="url(#heatGrad)" fill-opacity="0.7"/>
  <rect x="12" y="17" width="4" height="4" rx="1" fill="url(#heatGrad)" fill-opacity="0.5"/>
  <rect x="17" y="17" width="4" height="4" rx="1" fill="url(#heatGrad)" fill-opacity="0.9"/>
</svg>